<svg xmlns="http://www.w3.org/2000/svg" width="27.993" height="37" viewBox="0 0 27.993 37">
  <g id="Group_396" data-name="Group 396" transform="translate(-1222 -7193)">
    <g id="noun_Files_3612948" transform="translate(1084.11 7177)">
      <path id="Path_644" data-name="Path 644" d="M159.745,16.329l5.74,5.339a1.274,1.274,0,0,1,.165.19h-5.423a.769.769,0,0,1-.761-.753l-.1-5.015A1.228,1.228,0,0,1,159.745,16.329ZM165.883,50.2a2.788,2.788,0,0,1-2.775,2.8H140.665a2.788,2.788,0,0,1-2.775-2.8V18.8a2.788,2.788,0,0,1,2.775-2.8h17.221l.1,5.134a2.258,2.258,0,0,0,2.242,2.209h5.65Z" fill="#139155"/>
    </g>
    <text id="_.pdf" data-name=".pdf" transform="translate(1226 7215)" fill="#fff" font-size="10" font-family="Helvetica-Bold, Helvetica" font-weight="700" letter-spacing="0.055em"><tspan x="0" y="0">.pdf</tspan></text>
  </g>
</svg>
